#!OML:ASF E:\Style4\Style4.ASF
:FULLY-SPECIFIED
:DEGREES
1783
root 0.974514 17.9867 -1.4927 7.13459 -8.14158 0.894611
lowerback 13.7253 3.45379 0.880124
upperback 12.5632 4.51456 1.06357
thorax 5.66102 2.25526 0.245106
lowerneck 1.7082 -6.43021 -3.53912
upperneck -11.3612 -8.3253 6.06503
head -3.57787 -4.27326 2.91733
rclavicle 7.15625e-015 5.56597e-015
rhumerus 31.6074 25.2377 -60.6131
rradius 70.6666
rwrist -70.8668
rhand -29.3668 -5.21664
rfingers 7.12502
rthumb -2.70595 -35.1792
lclavicle 7.15625e-015 5.56597e-015
lhumerus 46.3566 -33.4559 48.6695
lradius 70.1529
lwrist 83.6342
lhand -20.2211 54.8295
lfingers 7.12502
lthumb 6.12633 84.7209
rfemur -24.7596 0.135695 15.1787
rtibia 30.2225
rfoot -9.30905 -14.1468
rtoes -14.4776
lfemur -21.6038 5.75303 -23.4826
ltibia 28.6983
lfoot -16.6361 15.1316
ltoes -10.305
1784
root 0.973698 17.9724 -1.51528 7.07803 -8.27735 0.846322
lowerback 14.2475 3.42403 1.00392
upperback 12.623 4.48534 1.06235
thorax 5.45974 2.24904 0.147503
lowerneck 1.67669 -6.444 -3.56243
upperneck -11.2361 -8.35056 6.03669
head -3.52677 -4.28354 2.90484
rclavicle 1.11319e-014 -3.18055e-015
rhumerus 31.0747 25.4318 -61.1691
rradius 70.8854
rwrist -70.8225
rhand -29.6222 -5.0035
rfingers 7.12502
rthumb -2.9526 -34.9628
lclavicle 1.11319e-014 -3.18055e-015
lhumerus 45.8933 -33.6323 49.1246
lradius 70.2179
lwrist 83.111
lhand -18.4977 54.3695
lfingers 7.12502
lthumb 7.79 84.206
rfemur -24.9842 0.145007 15.2632
rtibia 30.5574
rfoot -9.52673 -14.0544
rtoes -14.0587
lfemur -21.9313 5.93842 -23.4347
ltibia 29.2807
lfoot -16.8597 15.0778
ltoes -10.5819
1785
root 0.971556 17.9575 -1.54218 7.25954 -8.44874 0.938944
lowerback 14.5919 3.41832 0.981029
upperback 12.5824 4.47785 0.971359
thorax 5.23783 2.24701 0.0415851
lowerneck 1.54558 -6.45981 -3.56111
upperneck -11.0177 -8.37022 6.07252
head -3.42286 -4.29358 2.89988
rclavicle -1.59028e-015 3.18055e-015
rhumerus 30.5225 25.6187 -61.8339
rradius 71.0949
rwrist -70.9109
rhand -30.0149 -4.60095
rfingers 7.12502
rthumb -3.33188 -34.5547
lclavicle -1.59028e-015 3.18055e-015
lhumerus 45.4306 -33.8696 49.4307
lradius 70.3333
lwrist 82.8786
lhand -17.7724 54.1523
lfingers 7.12502
lthumb 8.49 83.9616
rfemur -25.5546 0.111991 15.1989
rtibia 30.9442
rfoot -9.65767 -13.9078
rtoes -13.6308
lfemur -22.5309 6.14273 -23.5716
ltibia 29.8057
lfoot -16.8876 15.0569
ltoes -10.7948
1786
root 0.969221 17.9391 -1.56846 7.69832 -8.65554 1.06156
lowerback 15.4617 3.30025 0.61307
upperback 11.9314 4.29672 0.884688
thorax 4.03575 2.13263 0.0897396
lowerneck 1.42296 -6.28859 -3.51611
upperneck -10.2328 -8.16856 5.83771
head -3.14988 -4.18103 2.76876
rclavicle -3.49861e-014 8.74653e-015
rhumerus 29.504 26.5874 -62.8265
rradius 71.266
rwrist -70.8411
rhand -30.3352 -4.29934
rfingers 7.12502
rthumb -3.6412 -34.248
lclavicle -3.49861e-014 8.74653e-015
lhumerus 43.8409 -34.2484 50.1816
lradius 70.4571
lwrist 82.9214
lhand -18.5934 54.4054
lfingers 7.12502
lthumb 7.69758 84.2453
rfemur -26.4341 0.093963 15.0928
rtibia 31.3362
rfoot -9.71033 -13.7793
rtoes -13.6073
lfemur -23.4207 6.43435 -23.7849
ltibia 30.3076
lfoot -16.9097 14.9482
ltoes -10.8236
1787
root 0.968825 17.9207 -1.58762 7.92256 -8.9137 1.11908
lowerback 15.4515 3.30583 0.494642
upperback 12.0124 4.28717 0.879222
thorax 4.12172 2.11935 0.154706
lowerneck 1.35385 -6.26404 -3.57754
upperneck -10.1174 -8.14218 5.8101
head -3.09732 -4.16402 2.76132
rclavicle 2.94201e-014 -1.59028e-015
rhumerus 29.2401 26.778 -63.274
rradius 71.3513
rwrist -70.6135
rhand -30.4018 -4.30177
rfingers 7.12502
rthumb -3.70549 -34.2493
lclavicle 2.94201e-014 -1.59028e-015
lhumerus 43.4078 -34.2765 50.6359
lradius 70.5758
lwrist 82.9074
lhand -19.2679 54.811
lfingers 7.12502
lthumb 7.04659 84.6737
rfemur -27.0519 0.178632 15.036
rtibia 31.7303
rfoot -9.82677 -13.6985
rtoes -13.8266
lfemur -24.0084 6.71318 -23.9067
ltibia 30.7772
lfoot -17.0389 14.8389
ltoes -10.5241
1788
root 0.971151 17.9036 -1.60421 7.86047 -9.15993 1.1791
lowerback 15.7517 3.29521 0.499107
upperback 12.1647 4.26883 0.837448
thorax 4.1366 2.11096 0.0993119
lowerneck 1.16392 -6.26473 -3.71382
upperneck -9.88405 -8.13932 5.93662
head -2.97168 -4.16044 2.80742
rclavicle 6.36111e-015 -1.59028e-015
rhumerus 28.9537 26.9186 -63.8062
rradius 71.447
rwrist -70.3006
rhand -30.3597 -4.27677
rfingers 7.12502
rthumb -3.66486 -34.225
lclavicle 6.36111e-015 -1.59028e-015
lhumerus 42.9772 -34.3066 51.1143
lradius 70.8307
lwrist 83.0459
lhand -19.8078 54.981
lfingers 7.12502
lthumb 6.52533 84.8605
rfemur -27.299 0.252452 14.9669
rtibia 32.0831
rfoot -10.0887 -13.5218
rtoes -13.4731
lfemur -24.253 6.88657 -23.9925
ltibia 31.2255
lfoot -17.1845 14.8202
ltoes -10.4644
1789
root 0.973572 17.8866 -1.62081 7.81393 -9.3653 1.23481
lowerback 16.0629 3.25605 0.56478
upperback 12.3083 4.22092 0.760018
thorax 4.14429 2.09344 -0.0247389
lowerneck 0.743814 -6.2603 -3.75721
upperneck -9.50729 -8.12841 5.99286
head -2.76213 -4.15067 2.79641
rclavicle 1.03368e-014 9.54166e-015
rhumerus 28.6893 27.0438 -64.3804
rradius 71.5475
rwrist -69.9236
rhand -30.3993 -4.37686
rfingers 7.12502
rthumb -3.70308 -34.3244
lclavicle 1.03368e-014 9.54166e-015
lhumerus 42.646 -34.3639 51.4454
lradius 71.0897
lwrist 83.3486
lhand -21.0914 54.7364
lfingers 7.12502
lthumb 5.28605 84.6504
rfemur -27.52 0.245962 14.9225
rtibia 32.3851
rfoot -10.2766 -13.3391
rtoes -13.3162
lfemur -24.5123 6.93844 -24.0262
ltibia 31.6577
lfoot -17.617 14.7124
ltoes -9.42165
1790
root 0.972796 17.8706 -1.638 7.94063 -9.57637 1.2715
lowerback 16.195 3.22852 0.541576
upperback 12.3863 4.17887 0.720347
thorax 4.16307 2.07144 -0.0529085
lowerneck 0.356335 -6.24576 -3.8148
upperneck -9.13987 -8.10844 6.00462
head -2.56533 -4.13426 2.77579
rclavicle -3.97569e-015 3.10104e-014
rhumerus 28.4452 27.218 -64.9292
rradius 71.618
rwrist -69.4887
rhand -30.5482 -4.50395
rfingers 7.12502
rthumb -3.84685 -34.449
lclavicle -3.97569e-015 3.10104e-014
lhumerus 42.1818 -34.4076 51.9991
lradius 71.1288
lwrist 82.8803
lhand -21.8643 53.9741
lfingers 7.12502
lthumb 4.53982 83.9055
rfemur -27.9414 0.221931 14.9209
rtibia 32.6665
rfoot -10.3186 -13.2138
rtoes -13.8237
lfemur -24.9806 6.97834 -24.0195
ltibia 32.1125
lfoot -18.222 14.4442
ltoes -7.22266
1791
root 0.970904 17.8527 -1.6568 8.10828 -9.7859 1.26158
lowerback 16.3031 3.22212 0.501474
upperback 12.4185 4.1627 0.707669
thorax 4.14057 2.06006 -0.0470083
lowerneck 0.0830915 -6.2242 -3.80567
upperneck -8.76724 -8.0827 5.97449
head -2.39368 -4.11657 2.73582
rclavicle 4.69132e-014 3.18055e-015
rhumerus 28.1605 27.3682 -65.5488
rradius 71.6406
rwrist -69.1354
rhand -30.7243 -4.59085
rfingers 7.12502
rthumb -4.01688 -34.5327
lclavicle 4.69132e-014 3.18055e-015
lhumerus 41.6602 -34.4483 52.6465
lradius 71.0953
lwrist 82.1412
lhand -21.3918 53.6562
lfingers 7.12502
lthumb 4.99602 83.5773
rfemur -28.4136 0.254951 14.9678
rtibia 32.9529
rfoot -10.3369 -13.1648
rtoes -14.182
lfemur -25.508 7.08754 -24.0001
ltibia 32.6153
lfoot -18.6074 14.2643
ltoes -5.95069
1792
root 0.971249 17.833 -1.67465 8.2288 -9.96851 1.24409
lowerback 16.5086 3.22235 0.509027
upperback 12.4299 4.16063 0.710912
thorax 4.04705 2.0582 -0.0589771
lowerneck -0.170518 -6.21138 -3.80237
upperneck -8.36279 -8.07057 5.936
head -2.21566 -4.10506 2.6946
rclavicle 4.6118e-014 2.38542e-015
rhumerus 27.8711 27.4793 -66.0944
rradius 71.6367
rwrist -68.882
rhand -30.9165 -4.48533
rfingers 7.12502
rthumb -4.20249 -34.4236
lclavicle 4.6118e-014 2.38542e-015
lhumerus 41.2234 -34.5116 53.2755
lradius 71.1188
lwrist 81.7413
lhand -19.7602 53.9098
lfingers 7.12502
lthumb 6.57129 83.7879
rfemur -28.8242 0.319253 14.9917
rtibia 33.2651
rfoot -10.5727 -13.0435
rtoes -13.1956
lfemur -25.9968 7.29355 -24.0233
ltibia 33.1538
lfoot -18.7306 14.2095
ltoes -6.23215
1793
root 0.970576 17.8152 -1.69016 8.26387 -10.1135 1.23602
lowerback 16.8173 3.18654 0.496102
upperback 12.4659 4.10834 0.749503
thorax 3.92296 2.02817 -0.0208892
lowerneck -0.472907 -6.21045 -3.94611
upperneck -7.98271 -8.0747 5.914
head -2.03121 -4.09755 2.68378
rclavicle 5.24792e-014 -7.95139e-015
rhumerus 27.7142 27.6576 -66.5463
rradius 71.5793
rwrist -68.571
rhand -31.1109 -4.11731
rfingers 7.12502
rthumb -4.39024 -34.0518
lclavicle 5.24792e-014 -7.95139e-015
lhumerus 40.8082 -34.5012 53.8612
lradius 71.1781
lwrist 81.5789
lhand -18.8859 54.0795
lfingers 7.12502
lthumb 7.41525 83.9296
rfemur -29.1363 0.36122 15.0195
rtibia 33.5954
rfoot -10.7783 -12.9747
rtoes -12.7317
lfemur -26.3735 7.58 -24.082
ltibia 33.6867
lfoot -18.6431 14.2051
ltoes -7.12572
